<svg xmlns="http://www.w3.org/2000/svg" viewBox="0 0 55.19 49.98"><defs><style>.cls-1{fill:#d4af37;}</style></defs><g id="Layer_2" data-name="Layer 2"><g id="Layer_1-2" data-name="Layer 1"><path class="cls-1" d="M54.35,24l.84-.7a8.91,8.91,0,0,0-11.4-1.89,3.36,3.36,0,0,1,3.12-2.14V18.17a4.16,4.16,0,0,0-1.42.26A5.49,5.49,0,0,1,49.13,17V16a6.59,6.59,0,0,0-2.55.51,7.75,7.75,0,0,1,4.78-1.65V13.72A8.9,8.9,0,0,0,43,19.58a8.91,8.91,0,0,0-8.35-5.86v1.09a7.75,7.75,0,0,1,4.78,1.65A6.59,6.59,0,0,0,36.89,16V17a5.49,5.49,0,0,1,3.64,1.39,4.21,4.21,0,0,0-1.42-.26v1.09a3.36,3.36,0,0,1,3.12,2.14,8.9,8.9,0,0,0-11.4,1.89l.83.7A7.76,7.76,0,0,1,36,21.39,6.44,6.44,0,0,0,34,23l.83.7a5.5,5.5,0,0,1,3.41-1.9,4.39,4.39,0,0,0-1.11.92l.84.7a3.36,3.36,0,0,1,3.64-1,8.86,8.86,0,0,0-5.88,10l1.07-.19a7.76,7.76,0,0,1,.79-5,6.49,6.49,0,0,0-.05,2.6l1.07-.19a5.52,5.52,0,0,1,.73-3.83,4.64,4.64,0,0,0,0,1.44L40.39,27a3.31,3.31,0,0,1,.55-2.5,3.36,3.36,0,0,1,1.5-1.19l-.67,21.81H6V29.44L25.89,20V43.71H27.1V18.07l-10.54,5V14.7L42.4,2.4V12.75h1.21V.49L15.35,13.94v9.72l-10.54,5V45.15H0v1.21H54.1V45.15H44.25l0-1.46-1.33-.19,1.31-.19-.07-2.5-1.24-.18,1.23-.18L44,37.93l-1.15-.17L44,37.6,43.94,35l-1.06-.15,1-.15-.08-2.58-1-.14,1-.13-.08-2.61-.88-.13.87-.12-.08-2.63-.79-.11.78-.12-.08-2.83a3.36,3.36,0,0,1,1.5,1.19,3.31,3.31,0,0,1,.55,2.5l1.08.19a4.35,4.35,0,0,0,0-1.44,5.52,5.52,0,0,1,.74,3.83l1.07.19a6.49,6.49,0,0,0,0-2.6,7.69,7.69,0,0,1,.78,5l1.08.19a8.88,8.88,0,0,0-5.88-10,3.36,3.36,0,0,1,3.64,1l.84-.7a4.81,4.81,0,0,0-1.11-.92,5.55,5.55,0,0,1,3.41,1.9l.83-.7a6.48,6.48,0,0,0-2-1.63A7.73,7.73,0,0,1,54.35,24Z"/><rect class="cls-1" x="10.14" y="48.77" width="33.81" height="1.21"/><path class="cls-1" d="M18.86,37.15v-5.8H13.05v5.8Zm-4.6-4.59h3.39v3.38H14.26Z"/><path class="cls-1" d="M11.6,9.43A4.72,4.72,0,1,0,6.89,4.71,4.72,4.72,0,0,0,11.6,9.43Zm0-8.22a3.51,3.51,0,1,1-3.5,3.5A3.5,3.5,0,0,1,11.6,1.21Z"/></g></g></svg>