<svg xmlns="http://www.w3.org/2000/svg" viewBox="0 0 167.78 49.98"><defs><style>.cls-1{fill:#d4af37;}</style></defs><g id="Layer_2" data-name="Layer 2"><g id="Layer_1-2" data-name="Layer 1"><path class="cls-1" d="M54.35,24l.84-.7a8.91,8.91,0,0,0-11.4-1.89,3.36,3.36,0,0,1,3.12-2.14V18.17a4.16,4.16,0,0,0-1.42.26A5.49,5.49,0,0,1,49.13,17V16a6.59,6.59,0,0,0-2.55.51,7.75,7.75,0,0,1,4.78-1.65V13.72A8.9,8.9,0,0,0,43,19.58a8.91,8.91,0,0,0-8.35-5.86v1.09a7.75,7.75,0,0,1,4.78,1.65A6.59,6.59,0,0,0,36.89,16V17a5.49,5.49,0,0,1,3.64,1.39,4.21,4.21,0,0,0-1.42-.26v1.09a3.36,3.36,0,0,1,3.12,2.14,8.9,8.9,0,0,0-11.4,1.89l.83.7A7.76,7.76,0,0,1,36,21.39,6.44,6.44,0,0,0,34,23l.83.7a5.5,5.5,0,0,1,3.41-1.9,4.39,4.39,0,0,0-1.11.92l.84.7a3.36,3.36,0,0,1,3.64-1,8.86,8.86,0,0,0-5.88,10l1.07-.19a7.76,7.76,0,0,1,.79-5,6.49,6.49,0,0,0-.05,2.6l1.07-.19a5.52,5.52,0,0,1,.73-3.83,4.64,4.64,0,0,0,0,1.44L40.39,27a3.31,3.31,0,0,1,.55-2.5,3.36,3.36,0,0,1,1.5-1.19l-.67,21.81H6V29.44L25.89,20V43.71H27.1V18.07l-10.54,5V14.7L42.4,2.4V12.75h1.21V.49L15.35,13.94v9.72l-10.54,5V45.15H0v1.21H54.1V45.15H44.25l0-1.46-1.33-.19,1.31-.19-.07-2.5-1.24-.18,1.23-.18L44,37.93l-1.15-.17L44,37.6,43.94,35l-1.06-.15,1-.15-.08-2.58-1-.14,1-.13-.08-2.61-.88-.13.87-.12-.08-2.63-.79-.11.78-.12-.08-2.83a3.36,3.36,0,0,1,1.5,1.19,3.31,3.31,0,0,1,.55,2.5l1.08.19a4.35,4.35,0,0,0,0-1.44,5.52,5.52,0,0,1,.74,3.83l1.07.19a6.49,6.49,0,0,0,0-2.6,7.69,7.69,0,0,1,.78,5l1.08.19a8.88,8.88,0,0,0-5.88-10,3.36,3.36,0,0,1,3.64,1l.84-.7a4.81,4.81,0,0,0-1.11-.92,5.55,5.55,0,0,1,3.41,1.9l.83-.7a6.48,6.48,0,0,0-2-1.63A7.73,7.73,0,0,1,54.35,24Z"/><rect class="cls-1" x="10.14" y="48.77" width="33.81" height="1.21"/><path class="cls-1" d="M18.86,37.15v-5.8H13.05v5.8Zm-4.6-4.59h3.39v3.38H14.26Z"/><path class="cls-1" d="M11.6,9.43A4.72,4.72,0,1,0,6.89,4.71,4.72,4.72,0,0,0,11.6,9.43Zm0-8.22a3.51,3.51,0,1,1-3.5,3.5A3.5,3.5,0,0,1,11.6,1.21Z"/><path class="cls-1" d="M68.25,15.57v.48a3.78,3.78,0,0,0-1.24.18.88.88,0,0,0-.56.57,4.27,4.27,0,0,0-.14,1.31V30.4a3.45,3.45,0,0,0,.11,1,.64.64,0,0,0,.39.46,2.63,2.63,0,0,0,.86.11h1a2.85,2.85,0,0,0,1.44-.43,5.07,5.07,0,0,0,1.34-1.22,8,8,0,0,0,1.08-1.8,8.69,8.69,0,0,0,.65-2.19h.55c0,.56-.07,1.28-.07,2.16,0,.4,0,1,0,1.71s.07,1.52.15,2.32q-1.23,0-2.76-.06H64.65l-2.28,0-2.16,0v-.48a4.18,4.18,0,0,0,1.12-.19.87.87,0,0,0,.5-.58A4.7,4.7,0,0,0,62,30V18.11a4.69,4.69,0,0,0-.13-1.31.87.87,0,0,0-.5-.57,3.05,3.05,0,0,0-1.12-.18v-.48l1.73,0,2.3,0,2.21,0Z"/><path class="cls-1" d="M88.34,19.86V29.94a3.15,3.15,0,0,0,.32,1.6,1.23,1.23,0,0,0,1.12.51v.51a14.86,14.86,0,0,0-1.49-.07c-.74,0-1.42,0-2.05.07a12.23,12.23,0,0,0-1.79.26V30.88a3.41,3.41,0,0,1-1.57,1.55,5.32,5.32,0,0,1-2.27.46,4.41,4.41,0,0,1-1.69-.26,2.26,2.26,0,0,1-1-.7,2.47,2.47,0,0,1-.55-1.16,8.44,8.44,0,0,1-.17-1.93v-6.1a3.23,3.23,0,0,0-.31-1.59,1.21,1.21,0,0,0-1.13-.52v-.5c.51.05,1,.07,1.49.07.73,0,1.42,0,2.06-.08a14.9,14.9,0,0,0,1.78-.26V30a2.9,2.9,0,0,0,.12.94,1.14,1.14,0,0,0,.4.6,1.28,1.28,0,0,0,.77.21,1.85,1.85,0,0,0,1-.28,2.34,2.34,0,0,0,1-2V22.74a3.12,3.12,0,0,0-.31-1.59A1.21,1.21,0,0,0,83,20.63v-.5c.51.05,1,.07,1.49.07.73,0,1.42,0,2.06-.08A14.9,14.9,0,0,0,88.34,19.86Z"/><path class="cls-1" d="M97.6,20.13v.5a.87.87,0,0,0-.68.22q-.21.21,0,.6l6.29,9.4c.18.24.37.49.58.75a1.18,1.18,0,0,0,.72.45v.51l-1.23-.06c-.54,0-1.08,0-1.63,0s-1.22,0-1.83,0l-1.38.06v-.51a.92.92,0,0,0,.68-.21c.14-.14.12-.34,0-.6l-6.28-9.41a4.6,4.6,0,0,0-.65-.85,1.34,1.34,0,0,0-.65-.35v-.5l1.39.06,1.85,0q.81,0,1.62,0Zm-1,6.79c0,.19.09.38.12.55l-.6.79a3.74,3.74,0,0,0-.85,1.83,1.71,1.71,0,0,0,.4,1.38,1.91,1.91,0,0,0,1.32.61v.48l-1.18,0-1.39,0h-2c-.25,0-.5,0-.74.06v-.48a4.36,4.36,0,0,0,1.11-.71,8,8,0,0,0,1.12-1.21Zm7.13-6.79v.48a3.64,3.64,0,0,0-1.07.68,11.38,11.38,0,0,0-1.16,1.21l-2.62,3.17c0-.17-.09-.36-.12-.55l1-1.27a3.76,3.76,0,0,0,.84-1.56,1.35,1.35,0,0,0-.23-1.17,1.77,1.77,0,0,0-1.24-.51v-.48l1.54.05,1.41,0,.93,0Z"/><path class="cls-1" d="M112.46,19.79A4.38,4.38,0,0,1,115.77,21a5.79,5.79,0,0,1,1.2,4.1h-7.7l0-.45h4.47a11.58,11.58,0,0,0-.1-2.17,4.83,4.83,0,0,0-.47-1.6,1,1,0,0,0-.85-.6c-.48,0-.89.34-1.22,1a9.69,9.69,0,0,0-.63,3.51l.1.16a3.29,3.29,0,0,0-.05.54v.59a6.62,6.62,0,0,0,.44,2.64,3,3,0,0,0,1.12,1.39,2.58,2.58,0,0,0,1.39.41,3.93,3.93,0,0,0,.91-.12,3.26,3.26,0,0,0,1.06-.5,4.31,4.31,0,0,0,1.06-1.13l.4.14a5.71,5.71,0,0,1-.9,1.84,5.15,5.15,0,0,1-1.62,1.49,4.53,4.53,0,0,1-2.37.58,5.83,5.83,0,0,1-2.83-.66,4.55,4.55,0,0,1-2-2.08,8.16,8.16,0,0,1-.74-3.73,7.83,7.83,0,0,1,.8-3.75,5,5,0,0,1,2.16-2.17A6.58,6.58,0,0,1,112.46,19.79Z"/><path class="cls-1" d="M125.06,15.3a4.71,4.71,0,0,1,1.82.28,6.43,6.43,0,0,1,1.11.61,4.66,4.66,0,0,0,.46.25.79.79,0,0,0,.35.09.37.37,0,0,0,.35-.27,3.6,3.6,0,0,0,.18-.79h.55c0,.27,0,.6-.06,1s0,.88,0,1.49,0,1.43,0,2.44h-.55a7.18,7.18,0,0,0-.5-2.21,4.34,4.34,0,0,0-1.26-1.73,3.36,3.36,0,0,0-2.18-.67,3,3,0,0,0-2.1.77,2.61,2.61,0,0,0-.82,2,2.94,2.94,0,0,0,.55,1.82,6,6,0,0,0,1.47,1.32l2,1.26a25.79,25.79,0,0,1,2.22,1.52,6.14,6.14,0,0,1,1.53,1.67,4.08,4.08,0,0,1,.57,2.21,4.13,4.13,0,0,1-2.55,4.05,6.16,6.16,0,0,1-2.54.5,5.83,5.83,0,0,1-2-.28,8.42,8.42,0,0,1-1.27-.6,1.67,1.67,0,0,0-.81-.34.37.37,0,0,0-.35.26,3.87,3.87,0,0,0-.18.8h-.55c0-.34,0-.73.06-1.19s0-1.05,0-1.79,0-1.66,0-2.78h.55a10.53,10.53,0,0,0,.54,2.69,4.51,4.51,0,0,0,1.37,2,3.8,3.8,0,0,0,2.46.76,3.5,3.5,0,0,0,1.5-.33,2.75,2.75,0,0,0,1.17-1,3.39,3.39,0,0,0,.45-1.84,3.05,3.05,0,0,0-.47-1.71,5.21,5.21,0,0,0-1.3-1.37,23.2,23.2,0,0,0-2-1.31c-.75-.46-1.46-.93-2.11-1.41a6.09,6.09,0,0,1-1.58-1.67,4.28,4.28,0,0,1-.58-2.29,4,4,0,0,1,.63-2.34,3.78,3.78,0,0,1,1.67-1.37A5.46,5.46,0,0,1,125.06,15.3Z"/><path class="cls-1" d="M137.63,16.22v4h3.56v.48h-3.56V30a2.43,2.43,0,0,0,.41,1.59,1.45,1.45,0,0,0,1.13.45,1.6,1.6,0,0,0,1.25-.59,5.09,5.09,0,0,0,.91-2l.48.12a5.42,5.42,0,0,1-.95,2.35,2.51,2.51,0,0,1-2.17,1,3.67,3.67,0,0,1-1.34-.2,2.77,2.77,0,0,1-.94-.59,2.86,2.86,0,0,1-.73-1.32,8,8,0,0,1-.21-2v-8h-2.3v-.48h2.3V16.55c.4,0,.79-.05,1.16-.09A4.88,4.88,0,0,0,137.63,16.22Z"/><path class="cls-1" d="M146.87,32.73a3.64,3.64,0,0,1-1.7-.38,2.49,2.49,0,0,1-1.09-1,3.16,3.16,0,0,1-.37-1.56A2.86,2.86,0,0,1,144.2,28a3.89,3.89,0,0,1,1.26-1.08,9.71,9.71,0,0,1,1.62-.68l1.62-.53a4.94,4.94,0,0,0,1.26-.59,1,1,0,0,0,.49-.88V22.77a3.18,3.18,0,0,0-.3-1.54,1.52,1.52,0,0,0-.8-.71,3.39,3.39,0,0,0-1.13-.18,5.58,5.58,0,0,0-1.29.17,1.93,1.93,0,0,0-1.09.7,1.35,1.35,0,0,1,.79.48,1.39,1.39,0,0,1,.34,1,1.23,1.23,0,0,1-.38.95,1.44,1.44,0,0,1-1,.35,1.18,1.18,0,0,1-1-.45,1.65,1.65,0,0,1-.32-1,1.54,1.54,0,0,1,.31-1,3.69,3.69,0,0,1,.79-.72,5.15,5.15,0,0,1,1.43-.66,6.66,6.66,0,0,1,2-.28,5.45,5.45,0,0,1,1.68.23,3,3,0,0,1,1.15.66,2.7,2.7,0,0,1,.82,1.41,9.36,9.36,0,0,1,.19,2v6.67a1.55,1.55,0,0,0,.18.86.62.62,0,0,0,.56.26,1,1,0,0,0,.51-.12,2.66,2.66,0,0,0,.57-.38l.27.41a8.23,8.23,0,0,1-1,.63,2.53,2.53,0,0,1-1.23.26,2.48,2.48,0,0,1-1.15-.24,1.56,1.56,0,0,1-.68-.71,2.74,2.74,0,0,1-.23-1.19,4.45,4.45,0,0,1-1.55,1.61A4,4,0,0,1,146.87,32.73Zm.87-1a2.53,2.53,0,0,0,1.47-.46,4.17,4.17,0,0,0,1.24-1.37v-4.7a2.15,2.15,0,0,1-.84.68c-.37.19-.77.37-1.2.55a11.23,11.23,0,0,0-1.24.65,3.32,3.32,0,0,0-1,1,2.94,2.94,0,0,0-.38,1.57,2.21,2.21,0,0,0,.51,1.53A1.8,1.8,0,0,0,147.74,31.77Z"/><path class="cls-1" d="M167.78,20.2v.48a1.39,1.39,0,0,0-.84.41,3.23,3.23,0,0,0-.72,1.27l-3.94,10.32h-.41l-4.41-10.63a2.35,2.35,0,0,0-.9-1.14,1.83,1.83,0,0,0-.73-.21v-.5c.35.05.72.08,1.1.11s.8,0,1.25,0,1,0,1.57,0l1.55-.1v.5a5.7,5.7,0,0,0-1.07.09.68.68,0,0,0-.59.5,2.58,2.58,0,0,0,.29,1.43L162.88,30l-.14.05,2.73-7.15a2.73,2.73,0,0,0,.26-1.26.9.9,0,0,0-.5-.71,3,3,0,0,0-1.29-.29V20.2l.74,0,.61,0H166l1,0Zm-5.5,12.48-.81,2.09a6.19,6.19,0,0,1-.5,1,2.7,2.7,0,0,1-.54.68,2,2,0,0,1-.91.49,3.86,3.86,0,0,1-1,.13,2.05,2.05,0,0,1-.83-.17,1.34,1.34,0,0,1-.8-1.27,1.25,1.25,0,0,1,.34-.92,1.19,1.19,0,0,1,.93-.35,1.36,1.36,0,0,1,.87.29,1,1,0,0,1,.36.84,1.11,1.11,0,0,1-.2.67,1.35,1.35,0,0,1-.45.41l.08,0h.06a1.71,1.71,0,0,0,1.15-.44,3.55,3.55,0,0,0,.89-1.43l.87-2.23Z"/></g></g></svg>